<?xml version="1.0" encoding="utf-8"?>
<!-- Generator: Adobe Illustrator 18.1.1, SVG Export Plug-In . SVG Version: 6.00 Build 0)  -->
<!DOCTYPE svg PUBLIC "-//W3C//DTD SVG 1.1//EN" "http://www.w3.org/Graphics/SVG/1.1/DTD/svg11.dtd">
<svg version="1.1" id="Layer_1" xmlns="http://www.w3.org/2000/svg" xmlns:xlink="http://www.w3.org/1999/xlink" x="0px" y="0px"
	 viewBox="0 0 142.1 112.3" enable-background="new 0 0 142.1 112.3" xml:space="preserve">
<linearGradient id="SVGID_1_" gradientUnits="userSpaceOnUse" x1="105.4648" y1="14.4688" x2="38.4271" y2="94.3612">
	<stop  offset="0" style="stop-color:#F2F2F2"/>
	<stop  offset="0.3092" style="stop-color:#EDEDED"/>
	<stop  offset="0.6797" style="stop-color:#DFDFDF"/>
	<stop  offset="1" style="stop-color:#CCCCCC"/>
</linearGradient>
<path fill="url(#SVGID_1_)" d="M11.9,33.6C4.3,22.5-2,5.7,16.5,2.6C27,0.8,41.7,4.2,50.2,12.4c-0.2-3.8,0.7-7.5,3.9-9.6
	c7.7-5.1,24-2.3,33.9,2.6c10.9,5.4,15,13,16.9,24.8c5.5-2.1,10.3-2.4,17.7,0.5c13.3,5.3,19.5,19.3,8.6,37.2
	c2.5,0.2,23.6,22.3-0.7,39.8c-16.3,11.7-39.3-0.2-47.5-16.1c-9.3,7.7-21.9,9.8-32.3,4.9c-4.6-2.1-9.4-9.8-10.7-14.9
	C27.6,85,11.4,73.6,4.5,64.7C-3,55-1.6,35,11.9,33.6z"/>
<path fill="#CFD1D1" d="M73.2,97.2C62.1,101,55.4,98,55.4,98c-11.8-2.3-15.4-16.6-15.4-16.6c-9.5,3-23.5-4.7-30.1-10.8
	c-5.8-5.4-7.7-10-7.7-10c-8.3-25.2,9.8-27,9.8-27C-6.5,66.2,44.5,75.7,44.5,75.7c8.8,23.4,39.7,11,39.7,11c27.5,30.8,57.2,7,57.2,7
	s-5.1,18.2-26.1,18.6c0,0-19.9,0.6-32.3-20.9C83,91.4,78.5,95.3,73.2,97.2z"/>
<path opacity="0.5" fill="#FFFFFF" d="M105.3,33.3c0,0,19.5-2.4,25.2,10.1c0,0,5.5,10.4-3.2,22.8c0,0,4.6-13.4-0.1-20.9
	C127.1,45.2,120.5,35.3,105.3,33.3z"/>
<path opacity="0.5" fill="#FFFFFF" d="M53.4,16c0,0-1.1-13.7,15.2-12.4c0,0,10.6,1.4,17.2,6.4C85.8,10,58.2,0.5,53.4,16z"/>
<path opacity="0.5" fill="#FFFFFF" d="M8.7,12.6c0,0,12.8-13.7,33-0.8C41.7,11.8,22.9,5.8,8.7,12.6z"/>
</svg>
