<?xml version="1.0" encoding="utf-8"?>
<!-- Generator: Adobe Illustrator 18.1.1, SVG Export Plug-In . SVG Version: 6.00 Build 0)  -->
<!DOCTYPE svg PUBLIC "-//W3C//DTD SVG 1.1//EN" "http://www.w3.org/Graphics/SVG/1.1/DTD/svg11.dtd">
<svg version="1.1" id="Layer_1" xmlns="http://www.w3.org/2000/svg" xmlns:xlink="http://www.w3.org/1999/xlink" x="0px" y="0px"
	 viewBox="0 0 112 88.5" enable-background="new 0 0 112 88.5" xml:space="preserve">
<linearGradient id="SVGID_1_" gradientUnits="userSpaceOnUse" x1="47.4091" y1="1.7392" x2="61.5081" y2="81.6986">
	<stop  offset="0" style="stop-color:#F2F2F2"/>
	<stop  offset="1" style="stop-color:#CCCCCC"/>
</linearGradient>
<path fill="url(#SVGID_1_)" d="M102.6,26.5c6-8.8,11-22-3.6-24.4c-8.3-1.4-19.9,1.3-26.6,7.7c0.1-3-0.5-5.9-3.1-7.6
	c-6-4-18.9-1.8-26.7,2c-8.6,4.3-11.8,10.3-13.3,19.5c-3.5-1.8-8.2-0.7-12.6,3.7c-6.2,6.1-16.7,12-8.1,26.1C6.6,53.6-10,71,9.1,84.8
	c12.8,9.3,30.9-0.2,37.5-12.7c7.3,6.1,17.2,7.7,25.5,3.8c3.6-1.7,7.4-7.7,8.5-11.8C90.2,67,103,58,108.4,51
	C114.4,43.3,113.3,27.6,102.6,26.5z"/>
<path fill="#CFD2D1" d="M102.6,26.5c0,0,11.8,1.1,8.8,17.8c0,0-0.6,8.2-15.1,16.8c0,0-9.5,5.4-15.9,3.1c0,0-3.2,12.9-14.7,13.6
	c0,0-11,2-19.2-5.7c0,0,25.5,5.4,30.9-12.4c0,0,23.7,1.3,29.4-15.9C110.9,31.5,102.6,26.5,102.6,26.5z"/>
<path opacity="0.5" fill="#FFFFFF" d="M31.7,23.8c0,0,7.1-21.4,25.5-19.7c0,0,9.8-0.3,12.2,7.2c0,0-4.1-3.4-12.6-3.8
	C55.5,7.5,41.4,5,31.7,23.8z"/>
</svg>
