<?xml version="1.0" encoding="utf-8"?>
<!-- Generator: Adobe Illustrator 18.1.1, SVG Export Plug-In . SVG Version: 6.00 Build 0)  -->
<!DOCTYPE svg PUBLIC "-//W3C//DTD SVG 1.1//EN" "http://www.w3.org/Graphics/SVG/1.1/DTD/svg11.dtd">
<svg version="1.1" id="Layer_2" xmlns="http://www.w3.org/2000/svg" xmlns:xlink="http://www.w3.org/1999/xlink" x="0px" y="0px"
	 viewBox="0 0 100 45" enable-background="new 0 0 100 45" xml:space="preserve">
<g>
	<g>
		<path fill="#CD7929" d="M50,5.5c23.5,0,38,5,38,8.7s-14.5,8.7-38,8.7c-23.5,0-38-5-38-8.7S26.5,5.5,50,5.5z"/>
	</g>
</g>
<g enable-background="new    ">
	<defs>
		<path id="SVGID_1_" enable-background="new    " d="M6.6,30.9c0-0.4,0-1,0-1.5c0-0.5,0-1.1,0-1.5c0-0.5,0-1.1,0-1.6
			c0-0.5,0-1.1,0-1.6c0-0.5,0-1.1,0-1.6c0-0.5,0-1.2,0-1.6c0-0.5,0-1.1,0-1.6c0-0.5,0-1.1,0-1.6c0-0.2,0-0.4,0-0.5
			c0-0.2,0-0.4,0-0.5c0-0.2,0-0.4,0-0.5c0-0.2,0-0.4,0-0.5c0-0.2,0-0.4,0-0.5c0-0.1,0-0.3,0-0.5c0-0.1,0-0.3,0-0.5
			c0-0.1,0-0.3,0-0.5c0,4.2,16.6,10.1,43.4,10.1c26.9,0,43.4-5.9,43.4-10.1v2v14.8C93.4,35.1,76.9,41,50,41
			C23.2,41,6.6,35.1,6.6,30.9z"/>
	</defs>
	<clipPath id="SVGID_2_">
		<use xlink:href="#SVGID_1_"  overflow="visible"/>
	</clipPath>
	<g clip-path="url(#SVGID_2_)" enable-background="new    ">
		<path fill="#8E7B2E" d="M93.4,14.2v16.7c0,0.1,0,0.2,0,0.3V14.5C93.4,14.4,93.4,14.3,93.4,14.2"/>
		<path fill="#93802F" d="M93.4,14.5v16.7c0,0.2-0.1,0.4-0.2,0.6V15.1C93.2,14.9,93.3,14.7,93.4,14.5"/>
		<path fill="#8E7B2E" d="M93.1,15.1v16.7c-0.2,0.5-0.7,1-1.3,1.4V16.5C92.5,16,92.9,15.6,93.1,15.1"/>
		<path fill="#89772E" d="M91.9,16.5v16.7c-0.7,0.6-1.7,1.2-2.9,1.8V18.3C90.1,17.7,91.1,17.1,91.9,16.5"/>
		<path fill="#84732D" d="M88.9,18.3V35c-2.5,1.2-6.1,2.4-10.5,3.3V21.6C82.9,20.7,86.4,19.5,88.9,18.3"/>
		<path fill="#7F6F2C" d="M78.4,21.6v16.7C71.2,39.9,61.6,41,50,41C23.2,41,6.6,35.1,6.6,30.9V14.2c0,4.2,16.6,10.1,43.4,10.1
			C61.6,24.3,71.2,23.2,78.4,21.6"/>
	</g>
</g>
<g>
	<g>
		<path fill="#F7BD45" d="M50,11.4c22.8,0,36.8,4.1,36.8,6.2c0,1.6-14,5.1-36.7,5.1c-22.8,0-36.8-3.7-36.8-5.1
			C13.2,15.5,27.2,11.4,50,11.4z"/>
	</g>
</g>
<g>
	<g>
		<path fill="#F8D052" d="M50,0.1c23.8,0,47.8,4.9,47.8,14.1c0,9.2-24,14-47.8,14s-47.8-4.8-47.8-14C2.2,4.9,26.3,0.1,50,0.1z
			 M50,21.3c26.9,0,38-4.4,38-7.2c0-2.7-11.1-8.7-38-8.7c-26.9,0-38,5.9-38,8.7C12,17,23.1,21.3,50,21.3"/>
	</g>
</g>
<path fill="#FCB717" d="M97.6,15.2c-0.1,0.5-0.2,0.9-0.5,1.3c-0.1,0.2-0.2,0.5-0.3,0.7c-0.1,0.2-0.3,0.4-0.4,0.6
	c-0.2,0.3-0.5,0.6-0.8,0.9c-0.2,0.2-0.4,0.4-0.6,0.5c-0.3,0.3-0.6,0.5-1,0.7c-0.3,0.2-0.5,0.4-0.8,0.6c-0.4,0.2-0.8,0.5-1.2,0.7
	c-0.3,0.2-0.6,0.4-1,0.5c-0.2,0.1-0.5,0.2-0.7,0.3c-1.4,0.6-2.9,1.2-4.6,1.8c-0.1,0-0.2,0.1-0.3,0.1c-1.7,0.5-3.6,1-5.5,1.5
	c-0.2,0-0.3,0.1-0.4,0.1c-1.9,0.4-3.9,0.8-6,1.1c-0.3,0.1-0.7,0.1-1,0.2c-2.1,0.3-4.2,0.6-6.3,0.8c-0.4,0-0.8,0.1-1.2,0.1
	c-2.2,0.2-4.5,0.4-6.7,0.5c-0.3,0-0.6,0-0.9,0c-2.4,0.1-4.8,0.2-7.3,0.2c-23.8,0-47.8-4.8-47.8-14v16.7c0,9.2,24.1,14,47.8,14
	c2.4,0,4.9-0.1,7.3-0.2c0.3,0,0.6,0,0.9,0c2.3-0.1,4.5-0.3,6.7-0.5c0.4,0,0.8-0.1,1.2-0.1c2.2-0.2,4.3-0.5,6.3-0.8
	c0.3-0.1,0.7-0.1,1-0.2c2.1-0.3,4.1-0.7,6-1.1c0,0,0.1,0,0.1,0c0.1,0,0.2-0.1,0.3-0.1c2-0.4,3.8-0.9,5.5-1.5c0.1,0,0.2-0.1,0.3-0.1
	c1.7-0.5,3.2-1.1,4.6-1.8c0.1-0.1,0.3-0.1,0.4-0.2c0.1-0.1,0.2-0.1,0.3-0.2c0.4-0.2,0.7-0.4,1-0.5c0.4-0.2,0.8-0.4,1.2-0.7
	c0.3-0.2,0.6-0.4,0.8-0.6c0.2-0.2,0.5-0.3,0.6-0.5c0.1-0.1,0.2-0.2,0.3-0.3c0.2-0.2,0.4-0.3,0.6-0.5c0.3-0.3,0.5-0.6,0.8-0.9
	c0.1-0.2,0.3-0.4,0.4-0.6c0.1-0.1,0.2-0.2,0.2-0.3c0.1-0.1,0.1-0.2,0.1-0.4c0.2-0.4,0.4-0.9,0.5-1.3c0-0.1,0.1-0.2,0.1-0.4
	c0-0.2,0-0.4,0-0.6V14.2C97.8,14.5,97.7,14.8,97.6,15.2z"/>
</svg>
