<?xml version="1.0" encoding="utf-8"?>
<!-- Generator: Adobe Illustrator 18.1.1, SVG Export Plug-In . SVG Version: 6.00 Build 0)  -->
<!DOCTYPE svg PUBLIC "-//W3C//DTD SVG 1.1//EN" "http://www.w3.org/Graphics/SVG/1.1/DTD/svg11.dtd">
<svg version="1.1"
	 id="Layer_1" xmlns:dc="http://purl.org/dc/elements/1.1/" xmlns:cc="http://creativecommons.org/ns#" xmlns:rdf="http://www.w3.org/1999/02/22-rdf-syntax-ns#"
	 xmlns="http://www.w3.org/2000/svg" xmlns:xlink="http://www.w3.org/1999/xlink" x="0px" y="0px"
	 viewBox="-2880.4 -2791.6 2639.5 2639.5" style="enable-background:new -2880.4 -2791.6 2639.5 2639.5;" xml:space="preserve">
<style type="text/css">
	.st0{fill:#6E9FAA;}
	.st1{fill:#9CCFDA;}
	.st2{fill:#FFFFFF;}
	.st3{fill:#C0392B;}
	.st4{fill:#ECF0F1;}
	.st5{fill:#E55C5C;}
	.st6{fill:#BA4343;}
	.st7{fill:#BFBFBF;}
	.st8{fill:#EAA347;}
	.st9{fill:#EDA337;}
	.st10{fill:#F7F7F7;}
</style>
<g>
	<circle class="st0" cx="-1560.6" cy="-1471.8" r="1319.7"/>
	<g>
		<path class="st1" d="M-1560.6-268.6c-162.5,0-320-31.8-468.3-94.5c-71.3-30.2-140-67.5-204.4-110.9
			c-63.7-43.1-123.6-92.5-178.1-147c-54.5-54.5-103.9-114.4-147-178.1c-43.5-64.3-80.8-133.1-110.9-204.4
			c-62.7-148.3-94.5-305.9-94.5-468.3s31.8-320,94.5-468.3c30.2-71.3,67.5-140,110.9-204.4c43.1-63.7,92.5-123.6,147-178.1
			c54.5-54.5,114.4-103.9,178.1-147c64.3-43.5,133.1-80.8,204.4-110.9c148.3-62.7,305.9-94.5,468.3-94.5s320,31.8,468.3,94.5
			c71.3,30.2,140,67.5,204.4,110.9c63.7,43.1,123.6,92.5,178.1,147c54.5,54.5,103.9,114.4,147,178.1
			c43.5,64.3,80.8,133.1,110.9,204.4c62.7,148.3,94.5,305.9,94.5,468.3s-31.8,320-94.5,468.3c-30.2,71.3-67.5,140-110.9,204.4
			c-43.1,63.7-92.5,123.6-147,178.1c-54.5,54.5-114.4,103.9-178.1,147c-64.3,43.5-133.1,80.8-204.4,110.9
			C-1240.6-300.4-1398.2-268.6-1560.6-268.6z"/>
		<path class="st2" d="M-1560.6-2625.1c78.3,0,156.5,7.9,232.5,23.4c74,15.1,146.8,37.7,216.3,67.2
			c68.3,28.9,134.2,64.7,195.9,106.3c61.1,41.3,118.5,88.7,170.7,140.9c52.2,52.2,99.6,109.7,140.9,170.7
			c41.6,61.6,77.4,127.5,106.3,195.9c29.4,69.6,52,142.3,67.2,216.3c15.5,76,23.4,154.2,23.4,232.5s-7.9,156.5-23.4,232.5
			c-15.1,74-37.7,146.8-67.2,216.3c-28.9,68.3-64.7,134.2-106.3,195.9c-41.3,61.1-88.7,118.5-140.9,170.7
			c-52.2,52.2-109.7,99.6-170.7,140.9c-61.6,41.6-127.5,77.4-195.9,106.3c-69.6,29.4-142.3,52-216.3,67.2
			c-76,15.5-154.2,23.4-232.5,23.4c-78.3,0-156.5-7.9-232.5-23.4c-74-15.1-146.8-37.7-216.3-67.2c-68.3-28.9-134.2-64.7-195.9-106.3
			c-61.1-41.3-118.5-88.7-170.7-140.9c-52.2-52.2-99.6-109.7-140.9-170.7c-41.6-61.6-77.4-127.5-106.3-195.9
			c-29.4-69.6-52-142.3-67.2-216.3c-15.5-76-23.4-154.2-23.4-232.5s7.9-156.5,23.4-232.5c15.1-74,37.7-146.8,67.2-216.3
			c28.9-68.3,64.7-134.2,106.3-195.9c41.3-61.1,88.7-118.5,140.9-170.7c52.2-52.2,109.7-99.6,170.7-140.9
			c61.6-41.6,127.5-77.4,195.9-106.3c69.6-29.4,142.3-52,216.3-67.2C-1717.2-2617.2-1638.9-2625.1-1560.6-2625.1 M-1560.6-2725.1
			c-692.1,0-1253.2,561.1-1253.2,1253.2s561.1,1253.2,1253.2,1253.2S-307.4-779.7-307.4-1471.8S-868.5-2725.1-1560.6-2725.1
			L-1560.6-2725.1z"/>
	</g>
</g>
<path class="st3" d="M-1928-1948.8c0,55.8-45.3,101.1-101.1,101.1s-101.1-45.3-101.1-101.1c0-55.8,45.3-101.1,101.1-101.1
	S-1928-2004.6-1928-1948.8z"/>
<path class="st4" d="M-2076.7-2122.1c-81.4,0-147.5,66-147.5,147.5v1032.2c0,81.5,66,147.5,147.5,147.5h442.4h147.5h442.4
	C-963-795-897-861-897-942.4v-1032.2c0-81.4-66-147.5-147.5-147.5h-442.4h-147.5H-2076.7z"/>
<path class="st5" d="M-2076.7-2122.1c-81.4,0-147.5,66-147.5,147.5v221.2v73.7H-897v-73.7v-221.2c0-81.4-66-147.5-147.5-147.5
	h-442.4h-147.5H-2076.7z"/>
<path class="st6" d="M-1007.6-1956c0,61.1-49.5,110.6-110.6,110.6c-61.1,0-110.6-49.5-110.6-110.6c0-61.1,49.5-110.6,110.6-110.6
	C-1057.1-2066.6-1007.6-2017.1-1007.6-1956z"/>
<path class="st7" d="M-1118.2-2235.8c-40.7,0-73.7,25.5-73.7,63.8v191.4c0,31.9,33,63.8,73.7,63.8s73.7-31.9,73.7-63.8V-2172
	C-1044.5-2210.3-1077.5-2235.8-1118.2-2235.8z"/>
<path class="st7" d="M-2076.7-1533.3v147.5h147.5v-147.5H-2076.7z M-1855.5-1533.3v147.5h147.5v-147.5H-1855.5z M-1634.3-1533.3
	v147.5h147.5v-147.5H-1634.3z M-1413.2-1533.3v147.5h147.5v-147.5H-1413.2z M-1192-1533.3v147.5h147.5v-147.5H-1192z"/>
<path class="st7" d="M-2076.7-1312.1v147.5h147.5v-147.5H-2076.7z M-1855.5-1312.1v147.5h147.5v-147.5H-1855.5z M-1634.3-1312.1
	v147.5h147.5v-147.5H-1634.3z M-1413.2-1312.1v147.5h147.5v-147.5H-1413.2z M-1192-1312.1v147.5h147.5v-147.5H-1192z"/>
<path class="st7" d="M-2076.7-1090.9v147.5h147.5v-147.5H-2076.7z M-1855.5-1090.9v147.5h147.5v-147.5H-1855.5z M-1634.3-1090.9
	v147.5h147.5v-147.5H-1634.3z M-1413.2-1090.9v147.5h147.5v-147.5H-1413.2z M-1192-1090.9v147.5h147.5v-147.5H-1192z"/>
<path class="st6" d="M-1892.4-1937.8c0,61.1-49.5,110.6-110.6,110.6c-61.1,0-110.6-49.5-110.6-110.6c0-61.1,49.5-110.6,110.6-110.6
	C-1941.9-2048.4-1892.4-1998.9-1892.4-1937.8z"/>
<path class="st7" d="M-2003-2220c-40.7,0-73.7,28.6-73.7,63.8v191.4c0,35.2,33,63.8,73.7,63.8c40.7,0,73.7-28.6,73.7-63.8v-191.4
	C-1929.3-2191.4-1962.3-2220-2003-2220z"/>
<g>
	<path class="st4" d="M-897-1353.8c-83.8-85.6-201.1-137.8-330.9-137.8c-254.8,0-461.3,201.3-461.3,461.3
		c0,85.5,23.8,166.2,65.3,235.4"/>
</g>
<g>
	<path class="st8" d="M-1227.4-1460.1c-236,0-427.3,186.4-427.3,427.3c0,233,191.3,427.3,427.3,427.3s427.3-194.2,427.3-427.3
		C-800.1-1273.6-991.4-1460.1-1227.4-1460.1z"/>
</g>
<path class="st9" d="M-1227.4-1382.4c193,0,349.6,155.4,349.6,349.6c0,186.4-156.5,349.6-349.6,349.6s-349.6-163.1-349.6-349.6
	C-1576.9-1227-1420.4-1382.4-1227.4-1382.4z"/>
<path class="st10" d="M-856.1-1029.6c0,205-166.2,371.2-371.2,371.2s-371.2-166.2-371.2-371.2s166.2-371.2,371.2-371.2
	S-856.1-1234.7-856.1-1029.6z"/>
<g>
	<g>
		<path class="st8" d="M-1064.8-991.1c-3.9-10.9-9.5-20.5-16.5-28.5c-7.3-8-15.6-15-25.5-20.7c-9.8-5.7-20.6-10.7-32.4-15.1
			c-11.8-4.3-24.6-8.1-38.1-11.5c-2.7-0.6-5.5-1.4-8.2-2l0-116.2c32,8.2,49.7,28.9,53.2,61.9l63.8,0c-0.7-19.3-4.8-36.5-12.4-51.7
			c-7.5-15.3-17.9-28.2-31.2-38.6c-13.3-10.4-29.3-18.4-47.9-23.8c-8.1-2.4-16.6-4.2-25.6-5.5l0-36l-62.9,0l0,34.8
			c-12.1,1.4-23.5,3.7-34.2,6.9c-18.1,5.5-33.6,13.2-46.6,23c-12.9,9.9-22.9,21.8-30,35.9c-7.1,13.9-10.7,29.3-10.7,46.1
			c0,15.4,2.4,28.9,7.5,40.7c4.4,10.4,10.9,19.9,19.4,28.2c1.2,1.8,2.6,3.6,4.1,5.4c0.2,0.2,0.4,0.3,0.6,0.5
			c-1.5-1.7-2.9-3.5-4.2-5.5c0.8,1,1.7,1.8,2.6,2.6c10.1,9.1,22.8,16.9,38.2,23.4c15.1,6.3,32.8,11.9,53.2,16.6
			c0.4,0.1,0.7,0.2,1.1,0.3c22.1,4.9,41,9.5,56.7,13.7c1.8,0.6,3.5,1,5.2,1.5c13.3,3.9,24.4,8,33.3,12.5c10,5,17.3,11,21.9,17.8
			c4.5,6.7,6.9,15,7.1,24.7c0,0.4,0,0.6,0,0.9c-4.4,30.2-19.6,41.1-25.5,45c-8.1,5.5-17.7,9.7-29,12.7c-2.6,0.7-5.2,1.2-7.9,1.7
			l0-86.7c-2.9-1.3-5.9-2.5-9.1-3.8c-14.9-6.1-32.8-12.7-53.9-20.1l0,109.5c-2.1-0.5-4-1-6.1-1.7c-12.3-3.4-23.2-8.6-32.6-15.4
			c-9.4-6.8-17.1-15.3-23-25.5c-6-10.2-9.6-21.9-10.7-35.3l-62.6,0c0.7,21.5,5,40.7,12.7,57.6c7.7,17,18.6,31.4,32.9,43.3
			c14.3,11.9,31.8,20.9,52.4,27.2c11.4,3.5,23.7,6,37,7.6l0,38.1l62.9,0l0-37.8c11.9-1.6,23.4-3.8,34.1-7.1
			c19-5.9,35.3-14.1,49.1-24.7c13.6-10.6,24.4-23.5,32.1-38.5c7.6-15,11.5-31.6,11.5-50C-1058.8-967.4-1060.8-980.1-1064.8-991.1z
			 M-1248.5-1084.8c-4-1.2-7.9-2.5-11.4-3.7c-11.1-3.9-20-8.2-26.8-12.7c-6.9-4.6-11.8-9.4-14.8-14.8c-3-5.2-4.5-11.2-4.5-17.7
			c0-7.9,2-15.2,5.8-22c3.9-6.8,9.5-12.7,16.7-17.6c7.3-4.9,16.2-8.9,26.6-11.6c2.7-0.8,5.6-1.3,8.4-2L-1248.5-1084.8z
			 M-1123.2-947.9c0-0.2,0-0.6,0-0.9c0-0.3,0-0.5,0-0.7c0,0.3,0,0.6,0,1C-1123.2-948.4-1123.2-948.1-1123.2-947.9z"/>
	</g>
</g>
<rect x="-1248.3" y="-1030" class="st8" width="62.7" height="77"/>
</svg>
