<?xml version="1.0" encoding="utf-8"?>
<!-- Generator: Adobe Illustrator 18.1.1, SVG Export Plug-In . SVG Version: 6.00 Build 0)  -->
<!DOCTYPE svg PUBLIC "-//W3C//DTD SVG 1.1//EN" "http://www.w3.org/Graphics/SVG/1.1/DTD/svg11.dtd">
<svg version="1.1"
	 id="Layer_1" xmlns:rdf="http://www.w3.org/1999/02/22-rdf-syntax-ns#" xmlns:dc="http://purl.org/dc/elements/1.1/" xmlns:cc="http://creativecommons.org/ns#"
	 xmlns="http://www.w3.org/2000/svg" xmlns:xlink="http://www.w3.org/1999/xlink" x="0px" y="0px"
	 viewBox="-2880.4 -2791.6 2639.5 2639.5" style="enable-background:new -2880.4 -2791.6 2639.5 2639.5;" xml:space="preserve">
<style type="text/css">
	.st0{fill:#6E9FAA;}
	.st1{fill:#9CCFDA;}
	.st2{fill:#FFFFFF;}
	.st3{fill:#ECF0F1;}
	.st4{fill:#E74C3C;}
	.st5{fill:#C0392B;}
	.st6{fill:#BDC3C7;}
	.st7{fill:#7F8C8D;}
	.st8{fill:#F9B231;}
</style>
<g>
	<circle class="st0" cx="-1560.6" cy="-1471.8" r="1319.7"/>
	<g>
		<path class="st1" d="M-1560.6-268.6c-162.5,0-320-31.8-468.3-94.5c-71.3-30.2-140-67.5-204.4-110.9
			c-63.7-43.1-123.6-92.5-178.1-147c-54.5-54.5-103.9-114.4-147-178.1c-43.5-64.3-80.8-133.1-110.9-204.4
			c-62.7-148.3-94.5-305.9-94.5-468.3s31.8-320,94.5-468.3c30.2-71.3,67.5-140,110.9-204.4c43.1-63.7,92.5-123.6,147-178.1
			c54.5-54.5,114.4-103.9,178.1-147c64.3-43.5,133.1-80.8,204.4-110.9c148.3-62.7,305.9-94.5,468.3-94.5s320,31.8,468.3,94.5
			c71.3,30.2,140,67.5,204.4,110.9c63.7,43.1,123.6,92.5,178.1,147c54.5,54.5,103.9,114.4,147,178.1
			c43.5,64.3,80.8,133.1,110.9,204.4c62.7,148.3,94.5,305.9,94.5,468.3s-31.8,320-94.5,468.3c-30.2,71.3-67.5,140-110.9,204.4
			c-43.1,63.7-92.5,123.6-147,178.1c-54.5,54.5-114.4,103.9-178.1,147c-64.3,43.5-133.1,80.8-204.4,110.9
			C-1240.6-300.4-1398.2-268.6-1560.6-268.6z"/>
		<path class="st2" d="M-1560.6-2625.1c78.3,0,156.5,7.9,232.5,23.4c74,15.1,146.8,37.7,216.3,67.2
			c68.3,28.9,134.2,64.7,195.9,106.3c61.1,41.3,118.5,88.7,170.7,140.9c52.2,52.2,99.6,109.7,140.9,170.7
			c41.6,61.6,77.4,127.5,106.3,195.9c29.4,69.6,52,142.3,67.2,216.3c15.5,76,23.4,154.2,23.4,232.5s-7.9,156.5-23.4,232.5
			c-15.1,74-37.7,146.8-67.2,216.3c-28.9,68.3-64.7,134.2-106.3,195.9c-41.3,61.1-88.7,118.5-140.9,170.7
			c-52.2,52.2-109.7,99.6-170.7,140.9c-61.6,41.6-127.5,77.4-195.9,106.3c-69.6,29.4-142.3,52-216.3,67.2
			c-76,15.5-154.2,23.4-232.5,23.4s-156.5-7.9-232.5-23.4c-74-15.1-146.8-37.7-216.3-67.2c-68.3-28.9-134.2-64.7-195.9-106.3
			c-61.1-41.3-118.5-88.7-170.7-140.9c-52.2-52.2-99.6-109.7-140.9-170.7c-41.6-61.6-77.4-127.5-106.3-195.9
			c-29.4-69.6-52-142.3-67.2-216.3c-15.5-76-23.4-154.2-23.4-232.5s7.9-156.5,23.4-232.5c15.1-74,37.7-146.8,67.2-216.3
			c28.9-68.3,64.7-134.2,106.3-195.9c41.3-61.1,88.7-118.5,140.9-170.7c52.2-52.2,109.7-99.6,170.7-140.9
			c61.6-41.6,127.5-77.4,195.9-106.3c69.6-29.4,142.3-52,216.3-67.2C-1717.2-2617.2-1638.9-2625.1-1560.6-2625.1 M-1560.6-2725.1
			c-692.1,0-1253.2,561.1-1253.2,1253.2s561.1,1253.2,1253.2,1253.2S-307.4-779.7-307.4-1471.8S-868.5-2725.1-1560.6-2725.1
			L-1560.6-2725.1z"/>
	</g>
</g>
<path class="st3" d="M-2083.9-2117.2c-74.4,0-134.8,60.3-134.8,134.8v943.3c0,74.5,60.3,134.8,134.8,134.8h404.3h134.8h404.3
	c74.5,0,134.8-60.3,134.8-134.8v-943.3c0-74.4-60.3-134.8-134.8-134.8h-404.3h-134.8H-2083.9z"/>
<path class="st4" d="M-2083.9-2117.2c-74.4,0-134.8,60.3-134.8,134.8v202.1v67.4h1212.9v-67.4v-202.1c0-74.4-60.3-134.8-134.8-134.8
	h-404.3h-134.8H-2083.9z"/>
<path class="st5" d="M-1915.4-1948.8c0,55.8-45.3,101.1-101.1,101.1s-101.1-45.3-101.1-101.1c0-55.8,45.3-101.1,101.1-101.1
	S-1915.4-2004.6-1915.4-1948.8z"/>
<path class="st6" d="M-2016.5-2252c-37.2,0-67.4,30.2-67.4,67.4v202.1c0,37.2,30.2,67.4,67.4,67.4c37.2,0,67.4-30.2,67.4-67.4
	v-202.1C-1949.1-2221.8-1979.3-2252-2016.5-2252z"/>
<path class="st5" d="M-1106.8-1948.8c0,55.8-45.3,101.1-101.1,101.1c-55.8,0-101.1-45.3-101.1-101.1c0-55.8,45.3-101.1,101.1-101.1
	C-1152.1-2049.9-1106.8-2004.6-1106.8-1948.8z"/>
<g>
	<path class="st6" d="M-1207.9-2252c-37.2,0-67.4,27-67.4,67.4v202.1c0,33.7,30.2,67.4,67.4,67.4c37.2,0,67.4-33.7,67.4-67.4v-202.1
		C-1140.5-2225-1170.7-2252-1207.9-2252z"/>
	<path class="st6" d="M-2083.9-1578.2v134.8h134.8v-134.8H-2083.9z M-1881.7-1578.2v134.8h134.8v-134.8H-1881.7z M-1679.6-1578.2
		v134.8h134.8v-134.8H-1679.6z M-1477.4-1578.2v134.8h134.8v-134.8H-1477.4z M-1275.3-1578.2v134.8h134.8v-134.8H-1275.3z"/>
	<path class="st6" d="M-2083.9-1376v134.8h134.8V-1376H-2083.9z M-1881.7-1376v134.8h134.8V-1376H-1881.7z M-1679.6-1376v134.8
		h134.8V-1376H-1679.6z M-1477.4-1376v134.8h134.8V-1376H-1477.4z M-1275.3-1376v134.8h134.8V-1376H-1275.3z"/>
	<path class="st6" d="M-2083.9-1173.9v134.8h134.8v-134.8H-2083.9z M-1881.7-1173.9v134.8h134.8v-134.8H-1881.7z M-1679.6-1173.9
		v134.8h134.8v-134.8H-1679.6z M-1477.4-1173.9v134.8h134.8v-134.8H-1477.4z M-1275.3-1173.9v134.8h134.8v-134.8H-1275.3z"/>
</g>
<path class="st2" d="M-842.6-1069.6c0,183.1-148.5,331.6-331.6,331.6s-331.6-148.5-331.6-331.6s148.5-331.6,331.6-331.6
	S-842.6-1252.7-842.6-1069.6z"/>
<path class="st7" d="M-1174.2-1472.7c-220.9,0-399.9,174.5-399.9,399.9c0,218.1,179,399.9,399.9,399.9s399.9-181.8,399.9-399.9
	C-774.4-1298.2-953.4-1472.7-1174.2-1472.7z M-1174.2-1400c180.7,0,327.2,145.4,327.2,327.2c0,174.5-146.5,327.2-327.2,327.2
	c-180.7,0-327.2-152.7-327.2-327.2C-1501.4-1254.6-1354.9-1400-1174.2-1400z"/>
<polygon class="st8" points="-1033.8,-1130 -1184.2,-1105.3 -1098.8,-1331.5 -1314.7,-1010.2 -1190.7,-1031.8 -1274.4,-814.2 "/>
</svg>
