<?xml version="1.0" encoding="utf-8"?>
<!-- Generator: Adobe Illustrator 18.1.1, SVG Export Plug-In . SVG Version: 6.00 Build 0)  -->
<!DOCTYPE svg PUBLIC "-//W3C//DTD SVG 1.1//EN" "http://www.w3.org/Graphics/SVG/1.1/DTD/svg11.dtd">
<svg version="1.1" id="Illustration" xmlns="http://www.w3.org/2000/svg" xmlns:xlink="http://www.w3.org/1999/xlink" x="0px"
	 y="0px" viewBox="0 0 2507.5 2507.5" style="enable-background:new 0 0 2507.5 2507.5;" xml:space="preserve">
<style type="text/css">
	.st0{fill:#5FC505;}
	.st1{fill:#DFF0CC;}
	.st2{fill:#FFFFFF;}
	.st3{fill:#60C605;}
	.st4{fill:#60C605;stroke:#60C605;stroke-miterlimit:10;}
</style>
<circle class="st0" cx="1253.7" cy="1253.7" r="1253.7"/>
<g>
	<path class="st1" d="M1253.7,2394.3c-154,0-303.4-30.1-443.9-89.6c-67.6-28.6-132.8-64-193.7-105.2
		c-60.4-40.8-117.2-87.7-168.8-139.3s-98.5-108.4-139.3-168.8c-41.2-61-76.6-126.2-105.2-193.7c-59.5-140.6-89.6-289.9-89.6-443.9
		s30.1-303.4,89.6-443.9c28.6-67.6,64-132.8,105.2-193.7c40.8-60.4,87.7-117.2,139.3-168.8s108.4-98.5,168.8-139.3
		c61-41.2,126.2-76.6,193.7-105.2c140.6-59.5,290-89.6,443.9-89.6s303.4,30.1,443.9,89.6c67.6,28.6,132.8,64,193.7,105.2
		c60.4,40.8,117.2,87.7,168.8,139.3c51.6,51.6,98.5,108.4,139.3,168.8c41.2,61,76.6,126.2,105.2,193.7
		c59.5,140.6,89.6,290,89.6,443.9s-30.1,303.4-89.6,443.9c-28.6,67.6-64,132.8-105.2,193.7c-40.8,60.4-87.7,117.2-139.3,168.8
		c-51.6,51.6-108.4,98.5-168.8,139.3c-61,41.2-126.2,76.6-193.7,105.2C1557.1,2364.2,1407.7,2394.3,1253.7,2394.3z"/>
	<path class="st2" d="M1253.7,163.2c74.1,0,148,7.5,219.9,22.2c70,14.3,138.8,35.7,204.6,63.5c64.6,27.3,126.9,61.1,185.2,100.5
		c57.8,39,112.1,83.9,161.5,133.2c49.4,49.4,94.2,103.7,133.2,161.5c39.4,58.3,73.2,120.6,100.5,185.2
		c27.8,65.8,49.2,134.6,63.5,204.6c14.7,71.9,22.2,145.8,22.2,219.9s-7.5,148-22.2,219.9c-14.3,70-35.7,138.8-63.5,204.6
		c-27.3,64.6-61.1,126.9-100.5,185.2c-39,57.8-83.9,112.1-133.2,161.5c-49.4,49.4-103.7,94.2-161.5,133.2
		c-58.3,39.4-120.6,73.2-185.2,100.5c-65.8,27.8-134.6,49.2-204.6,63.5c-71.9,14.7-145.8,22.2-219.9,22.2s-148-7.5-219.9-22.2
		c-70-14.3-138.8-35.7-204.6-63.5c-64.6-27.3-126.9-61.1-185.2-100.5c-57.8-39-112.1-83.9-161.5-133.2
		c-49.4-49.4-94.2-103.7-133.2-161.5c-39.4-58.3-73.2-120.6-100.5-185.2c-27.8-65.8-49.2-134.6-63.5-204.6
		c-14.7-71.9-22.2-145.8-22.2-219.9s7.5-148,22.2-219.9c14.3-70,35.7-138.8,63.5-204.6c27.3-64.6,61.1-126.9,100.5-185.2
		c39-57.8,83.9-112.1,133.2-161.5c49.4-49.4,103.7-94.2,161.5-133.2c58.3-39.4,120.6-73.2,185.2-100.5
		c65.8-27.8,134.6-49.2,204.6-63.5C1105.7,170.6,1179.7,163.2,1253.7,163.2 M1253.7,63.2c-657.5,0-1190.6,533-1190.6,1190.6
		s533,1190.6,1190.6,1190.6s1190.6-533,1190.6-1190.6S1911.3,63.2,1253.7,63.2L1253.7,63.2z"/>
</g>
<g>
	<rect x="632.3" y="1026.8" class="st3" width="194.6" height="743.2"/>
	<rect x="932.6" y="1206.3" class="st3" width="194.6" height="563.7"/>
	<rect x="1221.7" y="1116.2" class="st3" width="194.6" height="653.8"/>
	<rect x="1533" y="1401" class="st3" width="194.6" height="369"/>
	<path class="st4" d="M1024.2,1021.6c-19.5,0-35.3-15.8-35.3-35.3c0-19.5,15.8-35.3,35.3-35.3c19.5,0,35.3,15.8,35.3,35.3
		C1059.5,1005.8,1043.7,1021.6,1024.2,1021.6z"/>
	<path class="st4" d="M1390.6,951.7c-19.5,0-35.3-15.8-35.3-35.3c0-19.5,15.8-35.2,35.3-35.2c19.5,0,35.2,15.8,35.2,35.2
		C1425.8,936,1410,951.7,1390.6,951.7z"/>
	<path class="st4" d="M1080,1008.2c3.6-7.9,5.6-16.7,5.3-25.9c-0.4-12.3-4.5-23.6-11.3-32.9l261.4-55.6c-4.6,8.8-7.4,18.7-7,29.4
		c0.4,11.2,4,21.5,9.7,30.2L1080,1008.2z"/>
	<path class="st4" d="M962.7,986.3c-0.1,4.5,0.5,8.9,1.3,13.2L566,766.8l1.5-67.3l416.1,243.3C971.2,953.4,963,968.8,962.7,986.3z"
		/>
	<path class="st4" d="M2083.1,1347.3c1.3,8-0.7,16.1-5.5,22.6c-4.8,6.5-12.2,10.6-20.1,11.5l-237.6,27.3
		c-16.1,1.9-30.7-9.7-32.6-25.9c-1.9-16.1,9.6-30.8,25.9-32.6l153.6-17.7l-529.5-372.1c16.2-13.9,24.2-36,19.1-58l558,391.3
		l-24-142.6c-2.6-15.2,7-29.6,21.6-33.4c0.8-0.2,1.6-0.4,2.5-0.5c16-2.7,31.2,8.1,33.9,24.1L2083.1,1347.3z"/>
</g>
<rect x="540.6" y="1766.7" class="st3" width="1278.6" height="60"/>
</svg>
