<?xml version="1.0" encoding="utf-8"?>
<!-- Generator: Adobe Illustrator 18.1.1, SVG Export Plug-In . SVG Version: 6.00 Build 0)  -->
<!DOCTYPE svg PUBLIC "-//W3C//DTD SVG 1.1//EN" "http://www.w3.org/Graphics/SVG/1.1/DTD/svg11.dtd">
<svg version="1.1" id="Illustration" xmlns="http://www.w3.org/2000/svg" xmlns:xlink="http://www.w3.org/1999/xlink" x="0px"
	 y="0px" viewBox="0 0 2063.6 2063.6" style="enable-background:new 0 0 2063.6 2063.6;" xml:space="preserve">
<style type="text/css">
	.st0{fill:#E3582E;}
	.st1{fill:#F7E3DD;}
	.st2{fill:#FFFFFF;}
</style>
<circle class="st0" cx="1031.8" cy="1031.8" r="1031.8"/>
<g>
	<path class="st1" d="M1031.8,1961.6c-125.5,0-247.3-24.6-361.9-73c-110.7-46.8-210.2-113.9-295.6-199.3
		c-85.4-85.4-152.5-184.8-199.3-295.6c-48.5-114.6-73-236.4-73-361.9s24.6-247.3,73-361.9c46.8-110.7,113.9-210.2,199.3-295.6
		S559.2,221.9,669.9,175c114.6-48.5,236.4-73,361.9-73s247.3,24.6,361.9,73c110.7,46.8,210.2,113.9,295.6,199.3
		c85.4,85.4,152.5,184.8,199.3,295.6c48.5,114.6,73,236.4,73,361.9s-24.6,247.3-73,361.9c-46.8,110.7-113.9,210.2-199.3,295.6
		c-85.4,85.4-184.8,152.5-295.6,199.3C1279.1,1937,1157.3,1961.6,1031.8,1961.6z"/>
	<path class="st2" d="M1031.8,152c59.8,0,119.5,6,177.4,17.9c56.4,11.6,112,28.8,165,51.2c52.1,22,102.4,49.3,149.4,81.1
		c46.6,31.5,90.4,67.7,130.3,107.5c39.8,39.8,76,83.7,107.5,130.3c31.8,47,59.1,97.3,81.1,149.4c22.4,53.1,39.7,108.6,51.2,165
		c11.9,58,17.9,117.7,17.9,177.4c0,59.8-6,119.5-17.9,177.4c-11.6,56.4-28.8,112-51.2,165c-22,52.1-49.3,102.4-81.1,149.4
		c-31.5,46.6-67.7,90.4-107.5,130.3c-39.8,39.8-83.7,76-130.3,107.5c-47,31.8-97.3,59.1-149.4,81.1c-53.1,22.4-108.6,39.7-165,51.2
		c-58,11.9-117.7,17.9-177.4,17.9c-59.8,0-119.5-6-177.4-17.9c-56.4-11.6-112-28.8-165-51.2c-52.1-22-102.4-49.3-149.4-81.1
		c-46.6-31.5-90.4-67.7-130.3-107.5c-39.8-39.8-76-83.7-107.5-130.3c-31.8-47-59.1-97.3-81.1-149.4c-22.4-53.1-39.7-108.6-51.2-165
		c-11.9-58-17.9-117.7-17.9-177.4c0-59.8,6-119.5,17.9-177.4c11.6-56.4,28.8-112,51.2-165c22-52.1,49.3-102.4,81.1-149.4
		c31.5-46.6,67.7-90.4,107.5-130.3c39.8-39.8,83.7-76,130.3-107.5c47-31.8,97.3-59.1,149.4-81.1c53.1-22.4,108.6-39.7,165-51.2
		C912.3,158,972,152,1031.8,152 M1031.8,52C490.7,52,52,490.7,52,1031.8s438.7,979.8,979.8,979.8s979.8-438.7,979.8-979.8
		S1572.9,52,1031.8,52L1031.8,52z"/>
</g>
<rect x="552" y="1137.1" class="st0" width="152" height="308.3"/>
<rect x="799.4" y="1021.3" class="st0" width="152" height="424.1"/>
<rect x="1037.1" y="1052.6" class="st0" width="151.9" height="392.7"/>
<rect x="1291.2" y="850" class="st0" width="151.9" height="595.4"/>
<path class="st0" d="M1581.5,479.8c0.2-6.3-2.2-12.4-6.7-16.9c-4.4-4.5-10.5-6.9-16.8-6.8l-186.7,4.3c-12.7,0.3-22.7,10.8-22.4,23.5
	c0.3,12.7,10.7,22.8,23.5,22.4l120.7-2.8L1123.4,848c14,9,22.6,25.2,21,42.8l389.7-362.3l-3.3,112.9c-0.4,12,8.6,22.1,20.3,23.5
	c0.7,0.1,1.3,0.1,2,0.1c12.7,0.4,23.3-9.6,23.6-22.3L1581.5,479.8z"/>
<path class="st0" d="M810.2,814.3c-15.2,0-27.6,12.3-27.6,27.5c0,15.2,12.3,27.5,27.6,27.5c15.2,0,27.5-12.3,27.5-27.5
	C837.7,826.6,825.4,814.3,810.2,814.3z"/>
<path class="st0" d="M1093.7,854.4c-15.2,0-27.5,12.3-27.5,27.5c0,15.2,12.3,27.5,27.5,27.5c15.2,0,27.5-12.3,27.5-27.5
	C1121.2,866.7,1108.8,854.4,1093.7,854.4z"/>
<path class="st0" d="M851.5,821.7c3,6.1,4.8,12.9,4.8,20.1c0,9.6-3,18.6-8,26l205.4,36.9c-3.8-6.7-6.2-14.4-6.2-22.7
	c0-8.7,2.6-16.8,6.8-23.8L851.5,821.7z"/>
<path class="st0" d="M764,841.8c0-3.5,0.5-7,1.3-10.3l-314.6,175v52.5l328.9-182.9C770.1,867.6,764,855.5,764,841.8z"/>
<rect x="471.9" y="1444" class="st0" width="1052.2" height="49.4"/>
</svg>
