<?xml version="1.0" encoding="utf-8"?>
<!-- Generator: Adobe Illustrator 18.1.1, SVG Export Plug-In . SVG Version: 6.00 Build 0)  -->
<!DOCTYPE svg PUBLIC "-//W3C//DTD SVG 1.1//EN" "http://www.w3.org/Graphics/SVG/1.1/DTD/svg11.dtd">
<svg version="1.1"
	 id="Layer_1" xmlns:dc="http://purl.org/dc/elements/1.1/" xmlns:cc="http://creativecommons.org/ns#" xmlns:rdf="http://www.w3.org/1999/02/22-rdf-syntax-ns#"
	 xmlns="http://www.w3.org/2000/svg" xmlns:xlink="http://www.w3.org/1999/xlink" x="0px" y="0px"
	 viewBox="-2880.4 -2791.6 2639.5 2639.5" style="enable-background:new -2880.4 -2791.6 2639.5 2639.5;" xml:space="preserve">
<style type="text/css">
	.st0{fill:#6E9FAA;}
	.st1{fill:#E2E2E2;}
	.st2{fill:#FFFFFF;}
	.st3{fill:#E2E2E2;stroke:#8D9293;stroke-width:280;stroke-linecap:round;stroke-miterlimit:10;}
</style>
<circle class="st0" cx="-1560.6" cy="-1471.8" r="1319.7"/>
<g>
	<path class="st1" d="M-1560.6-269.8c-162.5,0-320-31.8-468.3-94.5c-71.3-30.2-140-67.5-204.4-110.9
		c-63.7-43.1-123.6-92.5-178.1-147s-103.9-114.4-147-178.1c-43.5-64.3-80.8-133.1-110.9-204.4c-62.7-148.3-94.5-305.9-94.5-468.3
		c0-162.5,31.8-320,94.5-468.3c30.2-71.3,67.5-140,110.9-204.4c43.1-63.7,92.5-123.6,147-178.1c54.5-54.5,114.4-103.9,178.1-147
		c64.3-43.5,133.1-80.8,204.4-110.9c148.3-62.7,305.9-94.5,468.3-94.5c162.5,0,320,31.8,468.3,94.5c71.3,30.2,140,67.5,204.4,110.9
		c63.7,43.1,123.7,92.5,178.1,147c54.5,54.5,103.9,114.4,147,178.1c43.5,64.3,80.8,133.1,110.9,204.4
		c62.7,148.3,94.5,305.9,94.5,468.3c0,162.5-31.8,320-94.5,468.3c-30.2,71.3-67.5,140-110.9,204.4c-43.1,63.7-92.5,123.6-147,178.1
		c-54.5,54.5-114.4,103.9-178.1,147c-64.3,43.5-133.1,80.8-204.4,110.9C-1240.6-301.6-1398.2-269.8-1560.6-269.8z"/>
	<path class="st2" d="M-1560.6-2626.3c78.3,0,156.5,7.9,232.5,23.4c74,15.1,146.8,37.7,216.3,67.2c68.3,28.9,134.2,64.7,195.9,106.3
		c61.1,41.3,118.5,88.7,170.7,140.9c52.2,52.2,99.6,109.7,140.9,170.7c41.6,61.6,77.4,127.5,106.3,195.9
		c29.4,69.6,52,142.3,67.2,216.3c15.5,76,23.4,154.2,23.4,232.5s-7.9,156.5-23.4,232.5c-15.1,74-37.7,146.8-67.2,216.3
		c-28.9,68.3-64.7,134.2-106.3,195.9c-41.3,61.1-88.7,118.5-140.9,170.7c-52.2,52.2-109.7,99.6-170.7,140.9
		c-61.6,41.6-127.5,77.4-195.9,106.3c-69.6,29.4-142.3,52-216.3,67.2c-76,15.5-154.2,23.4-232.5,23.4s-156.5-7.9-232.5-23.4
		c-74-15.1-146.8-37.7-216.3-67.2c-68.3-28.9-134.2-64.7-195.9-106.3c-61.1-41.3-118.5-88.7-170.7-140.9
		c-52.2-52.2-99.6-109.7-140.9-170.7c-41.6-61.6-77.4-127.5-106.3-195.9c-29.4-69.6-52-142.3-67.2-216.3
		c-15.5-76-23.4-154.2-23.4-232.5s7.9-156.5,23.4-232.5c15.1-74,37.7-146.8,67.2-216.3c28.9-68.3,64.7-134.2,106.3-195.9
		c41.3-61.1,88.7-118.5,140.9-170.7c52.2-52.2,109.7-99.6,170.7-140.9c61.6-41.6,127.5-77.4,195.9-106.3
		c69.6-29.4,142.3-52,216.3-67.2C-1717.2-2618.4-1638.9-2626.3-1560.6-2626.3 M-1560.6-2726.3c-692.1,0-1253.2,561.1-1253.2,1253.2
		s561.1,1253.2,1253.2,1253.2S-307.4-780.9-307.4-1473S-868.5-2726.3-1560.6-2726.3L-1560.6-2726.3z"/>
</g>
<line class="st3" x1="-2188.4" y1="-1465.8" x2="-932.8" y2="-1465.8"/>
</svg>
