<?xml version="1.0" encoding="utf-8"?>
<!-- Generator: Adobe Illustrator 18.1.1, SVG Export Plug-In . SVG Version: 6.00 Build 0)  -->
<!DOCTYPE svg PUBLIC "-//W3C//DTD SVG 1.1//EN" "http://www.w3.org/Graphics/SVG/1.1/DTD/svg11.dtd">
<svg version="1.1" id="Illustration" xmlns="http://www.w3.org/2000/svg" xmlns:xlink="http://www.w3.org/1999/xlink" x="0px"
	 y="0px" viewBox="0 0 2507.5 2507.5" enable-background="new 0 0 2507.5 2507.5" xml:space="preserve">
<circle fill="#354960" cx="1253.7" cy="1253.7" r="1253.7"/>
<g>
	<path fill="#E4E7E9" d="M1255.9,2393.2c-154,0-303.4-30.1-443.9-89.6c-67.6-28.6-132.8-64-193.7-105.2
		c-60.4-40.8-117.2-87.7-168.8-139.3s-98.5-108.4-139.3-168.8c-41.2-61-76.6-126.2-105.2-193.7c-59.5-140.6-89.6-290-89.6-443.9
		c0-154,30.1-303.4,89.6-443.9c28.6-67.6,64-132.8,105.2-193.7c40.8-60.4,87.7-117.2,139.3-168.8s108.4-98.5,168.8-139.3
		c61-41.2,126.2-76.6,193.7-105.2c140.6-59.5,289.9-89.6,443.9-89.6c154,0,303.4,30.1,443.9,89.6c67.6,28.6,132.8,64,193.7,105.2
		c60.4,40.8,117.2,87.7,168.8,139.3c51.6,51.6,98.5,108.4,139.3,168.8c41.2,61,76.6,126.2,105.2,193.7
		c59.5,140.6,89.6,289.9,89.6,443.9c0,154-30.1,303.4-89.6,443.9c-28.6,67.6-64,132.8-105.2,193.7
		c-40.8,60.4-87.7,117.2-139.3,168.8c-51.6,51.6-108.4,98.5-168.8,139.3c-61,41.2-126.2,76.6-193.7,105.2
		C1559.3,2363.1,1409.9,2393.2,1255.9,2393.2z"/>
	<path fill="#FFFFFF" d="M1255.9,162.1c74.1,0,148,7.5,219.9,22.2c70,14.3,138.8,35.7,204.6,63.5c64.6,27.3,126.9,61.1,185.2,100.5
		c57.8,39,112.1,83.9,161.5,133.2c49.4,49.4,94.2,103.7,133.2,161.5c39.4,58.3,73.2,120.6,100.5,185.2
		c27.8,65.8,49.2,134.6,63.5,204.6c14.7,71.9,22.2,145.8,22.2,219.9s-7.5,148-22.2,219.9c-14.3,70-35.7,138.8-63.5,204.6
		c-27.3,64.6-61.1,126.9-100.5,185.2c-39,57.8-83.9,112.1-133.2,161.5c-49.4,49.4-103.7,94.2-161.5,133.2
		c-58.3,39.4-120.6,73.2-185.2,100.5c-65.8,27.8-134.6,49.2-204.6,63.5c-71.9,14.7-145.8,22.2-219.9,22.2s-148-7.5-219.9-22.2
		c-70-14.3-138.8-35.7-204.6-63.5c-64.6-27.3-126.9-61.1-185.2-100.5c-57.8-39-112.1-83.9-161.5-133.2
		c-49.4-49.4-94.2-103.7-133.2-161.5c-39.4-58.3-73.2-120.6-100.5-185.2c-27.8-65.8-49.2-134.6-63.5-204.6
		c-14.7-71.9-22.2-145.8-22.2-219.9s7.5-148,22.2-219.9c14.3-70,35.7-138.8,63.5-204.6c27.3-64.6,61.1-126.9,100.5-185.2
		c39-57.8,83.9-112.1,133.2-161.5c49.4-49.4,103.7-94.2,161.5-133.2c58.3-39.4,120.6-73.2,185.2-100.5
		c65.8-27.8,134.6-49.2,204.6-63.5C1107.9,169.5,1181.9,162.1,1255.9,162.1 M1255.9,62.1c-657.5,0-1190.6,533-1190.6,1190.6
		s533,1190.6,1190.6,1190.6s1190.6-533,1190.6-1190.6S1913.5,62.1,1255.9,62.1L1255.9,62.1z"/>
</g>
<line fill="none" stroke="#354960" stroke-width="100" stroke-linecap="round" stroke-miterlimit="10" x1="1907.7" y1="1271.7" x2="627.9" y2="1270.3"/>
</svg>
