<?xml version="1.0" encoding="utf-8"?>
<!-- Generator: Adobe Illustrator 18.1.1, SVG Export Plug-In . SVG Version: 6.00 Build 0)  -->
<!DOCTYPE svg PUBLIC "-//W3C//DTD SVG 1.1//EN" "http://www.w3.org/Graphics/SVG/1.1/DTD/svg11.dtd">
<svg version="1.1"
	 id="Layer_1" xmlns:dc="http://purl.org/dc/elements/1.1/" xmlns:cc="http://creativecommons.org/ns#" xmlns:rdf="http://www.w3.org/1999/02/22-rdf-syntax-ns#"
	 xmlns="http://www.w3.org/2000/svg" xmlns:xlink="http://www.w3.org/1999/xlink" x="0px" y="0px"
	 viewBox="-2880.4 -2791.6 2639.5 2639.5" style="enable-background:new -2880.4 -2791.6 2639.5 2639.5;" xml:space="preserve">
<style type="text/css">
	.st0{fill:#6E9FAA;}
	.st1{fill:#416472;}
	.st2{fill:#FFFFFF;}
	.st3{fill:#9CCFDA;}
	.st4{opacity:0.85;}
	.st5{fill:#EAA347;}
	.st6{fill:#F7F7F7;}
</style>
<circle class="st0" cx="-1560.6" cy="-1471.8" r="1319.7"/>
<g>
	<path class="st1" d="M-1560.6-268.6c-162.5,0-320-31.8-468.3-94.5c-71.3-30.2-140-67.5-204.4-110.9
		c-63.7-43.1-123.6-92.5-178.1-147c-54.5-54.5-103.9-114.4-147-178.1c-43.5-64.3-80.8-133.1-110.9-204.4
		c-62.7-148.3-94.5-305.9-94.5-468.3s31.8-320,94.5-468.3c30.2-71.3,67.5-140,110.9-204.4c43.1-63.7,92.5-123.6,147-178.1
		c54.5-54.5,114.4-103.9,178.1-147c64.3-43.5,133.1-80.8,204.4-110.9c148.3-62.7,305.9-94.5,468.3-94.5s320,31.8,468.3,94.5
		c71.3,30.2,140,67.5,204.4,110.9c63.7,43.1,123.6,92.5,178.1,147c54.5,54.5,103.9,114.4,147,178.1
		c43.5,64.3,80.8,133.1,110.9,204.4c62.7,148.3,94.5,305.9,94.5,468.3s-31.8,320-94.5,468.3c-30.2,71.3-67.5,140-110.9,204.4
		c-43.1,63.7-92.5,123.6-147,178.1c-54.5,54.5-114.4,103.9-178.1,147c-64.3,43.5-133.1,80.8-204.4,110.9
		C-1240.6-300.4-1398.2-268.6-1560.6-268.6z"/>
	<path class="st2" d="M-1560.6-2625.1c78.3,0,156.5,7.9,232.5,23.4c74,15.1,146.8,37.7,216.3,67.2c68.3,28.9,134.2,64.7,195.9,106.3
		c61.1,41.3,118.5,88.7,170.7,140.9c52.2,52.2,99.6,109.7,140.9,170.7c41.6,61.6,77.4,127.5,106.3,195.9
		c29.4,69.6,52,142.3,67.2,216.3c15.5,76,23.4,154.2,23.4,232.5s-7.9,156.5-23.4,232.5c-15.1,74-37.7,146.8-67.2,216.3
		c-28.9,68.3-64.7,134.2-106.3,195.9c-41.3,61.1-88.7,118.5-140.9,170.7c-52.2,52.2-109.7,99.6-170.7,140.9
		c-61.6,41.6-127.5,77.4-195.9,106.3c-69.6,29.4-142.3,52-216.3,67.2c-76,15.5-154.2,23.4-232.5,23.4c-78.3,0-156.5-7.9-232.5-23.4
		c-74-15.1-146.8-37.7-216.3-67.2c-68.3-28.9-134.2-64.7-195.9-106.3c-61.1-41.3-118.5-88.7-170.7-140.9
		c-52.2-52.2-99.6-109.7-140.9-170.7c-41.6-61.6-77.4-127.5-106.3-195.9c-29.4-69.6-52-142.3-67.2-216.3
		c-15.5-76-23.4-154.2-23.4-232.5s7.9-156.5,23.4-232.5c15.1-74,37.7-146.8,67.2-216.3c28.9-68.3,64.7-134.2,106.3-195.9
		c41.3-61.1,88.7-118.5,140.9-170.7c52.2-52.2,109.7-99.6,170.7-140.9c61.6-41.6,127.5-77.4,195.9-106.3
		c69.6-29.4,142.3-52,216.3-67.2C-1717.2-2617.2-1638.9-2625.1-1560.6-2625.1 M-1560.6-2725.1c-692.1,0-1253.2,561.1-1253.2,1253.2
		s561.1,1253.2,1253.2,1253.2S-307.4-779.7-307.4-1471.8S-868.5-2725.1-1560.6-2725.1L-1560.6-2725.1z"/>
</g>
<path class="st3" d="M-1261.7-2296.6c0,0,183.9,145.5,74.5,332.7c-115.5,197.6-325.6,104.9-325.6,104.9s138.4,297.3,430.8,162.1
	c28.1-13,53.8-30.5,75.9-52.2c59.5-58.5,161.1-184,63.6-383.4C-988.5-2226.6-1086.9-2304.2-1261.7-2296.6z"/>
<path class="st3" d="M-2194.6-1638C-2194.6-1738.9-2194.6-1738.9-2194.6-1638c-16.4-100.8-29.6-114.1-130.5-130.5
	c100.8,0,100.8,0,0,0c100.8-16.4,114.1-29.6,130.5-130.5c0,100.8,0,100.8,0,0c16.4,100.8,29.6,114.1,130.5,130.5
	c-100.8,0-100.8,0,0,0C-2165-1752.1-2178.3-1738.9-2194.6-1638z"/>
<path class="st3" d="M-1807.4-1859.1C-1807.4-1998.5-1807.4-1998.5-1807.4-1859.1c-22.6-139.4-40.9-157.7-180.3-180.3
	c139.4,0,139.4,0,0,0c139.4-22.6,157.7-40.9,180.3-180.3c0,139.4,0,139.4,0,0c22.6,139.4,40.9,157.7,180.3,180.3
	c-139.4,0-139.4,0,0,0C-1766.5-2016.8-1784.8-1998.5-1807.4-1859.1z"/>
<g class="st4">
	<path class="st2" d="M-1105.7-1258.8h-22.3c0.1-3.2,0.2-6.4,0.2-9.7c0-143.1-116-259.2-259.2-259.2c-143.1,0-259.2,116-259.2,259.2
		c0,3.2,0.1,6.5,0.2,9.7h-0.7c11.7,29.1,18.3,60.7,18.8,93.8h34.9c83.8,0,152.3,68.5,152.3,152.3v3c0,77.6-58.8,142.1-134.1,151.2
		h381.9c47.8,0,87-39.1,87-87v-17.8h0.3c70.7,0,128.6-57.9,128.6-128.6v-38.3C-977.1-1200.9-1034.9-1258.8-1105.7-1258.8z"/>
	<path class="st2" d="M-1432.8-1009.5v-3c0-83.8-68.5-152.3-152.3-152.3h-34.9c-0.5-33.1-7.1-64.7-18.8-93.8
		c-38.7-96.2-132.9-164.2-242.9-164.2c-127.7,0-234.1,91.5-257.1,212.5h-2.5c-124.1,0-225.6,101.5-225.6,225.6v0
		c0,124.1,101.5,225.6,225.6,225.6h271.6c76.9,0,145.1-39,185.9-98.2h98.7c6.1,0,12.2-0.4,18.2-1.1
		C-1491.6-867.4-1432.8-931.9-1432.8-1009.5z"/>
</g>
<g>
	<path class="st5" d="M-1211.5-1458.9c-236,0-427.3,186.4-427.3,427.3c0,233,191.3,427.3,427.3,427.3s427.3-194.2,427.3-427.3
		C-784.3-1272.4-975.5-1458.9-1211.5-1458.9z"/>
</g>
<path class="st6" d="M-840.3-1028.4c0,205-166.2,371.2-371.2,371.2s-371.2-166.2-371.2-371.2s166.2-371.2,371.2-371.2
	S-840.3-1233.5-840.3-1028.4z"/>
<g>
	<g>
		<path class="st5" d="M-1048.9-989.9c-3.9-10.9-9.5-20.5-16.5-28.5c-7.3-8-15.6-15-25.5-20.7c-9.8-5.7-20.6-10.7-32.4-15.1
			c-11.8-4.3-24.6-8.1-38.1-11.5c-2.7-0.6-5.5-1.4-8.2-2l0-116.2c32,8.2,49.7,28.9,53.2,61.9l63.8,0c-0.7-19.3-4.8-36.5-12.4-51.7
			c-7.5-15.3-17.9-28.2-31.2-38.6c-13.3-10.4-29.3-18.4-47.9-23.8c-8.1-2.4-16.6-4.2-25.6-5.5l0-36l-62.9,0l0,34.8
			c-12.1,1.4-23.5,3.7-34.2,6.9c-18.1,5.5-33.6,13.2-46.6,23c-12.9,9.9-22.9,21.8-30,35.9c-7.1,13.9-10.7,29.3-10.7,46.1
			c0,15.4,2.4,28.9,7.5,40.7c4.4,10.4,10.9,19.9,19.4,28.2c1.2,1.8,2.6,3.6,4.1,5.4c0.2,0.2,0.4,0.3,0.6,0.5
			c-1.5-1.7-2.9-3.5-4.2-5.5c0.8,1,1.7,1.8,2.6,2.6c10.1,9.1,22.8,16.9,38.2,23.4c15.1,6.3,32.8,11.9,53.2,16.6
			c0.4,0.1,0.7,0.2,1.1,0.3c22.1,4.9,41,9.5,56.7,13.7c1.8,0.6,3.5,1,5.2,1.5c13.3,3.9,24.4,8,33.3,12.5c10,5,17.3,11,21.9,17.8
			c4.5,6.7,6.9,15,7.1,24.7c0,0.4,0,0.6,0,0.9c-4.4,30.2-19.6,41.1-25.5,45c-8.1,5.5-17.7,9.7-29,12.7c-2.6,0.7-5.2,1.2-7.9,1.7
			l0-86.7c-2.9-1.3-5.9-2.5-9.1-3.8c-14.9-6.1-32.8-12.7-53.9-20.1l0,109.5c-2.1-0.5-4-1-6.1-1.7c-12.3-3.4-23.2-8.6-32.6-15.4
			c-9.4-6.8-17.1-15.3-23-25.5c-6-10.2-9.6-21.9-10.7-35.3l-62.6,0c0.7,21.5,5,40.7,12.7,57.6c7.7,17,18.6,31.4,32.9,43.3
			c14.3,11.9,31.8,20.9,52.4,27.2c11.4,3.5,23.7,6,37,7.6l0,38.1l62.9,0l0-37.8c11.9-1.6,23.4-3.8,34.1-7.1
			c19-5.9,35.3-14.1,49.1-24.7c13.6-10.6,24.4-23.5,32.1-38.5c7.6-15,11.5-31.6,11.5-50C-1043-966.2-1044.9-978.9-1048.9-989.9z
			 M-1232.6-1083.7c-4-1.2-7.9-2.5-11.4-3.7c-11.1-3.9-20-8.2-26.8-12.7c-6.9-4.6-11.8-9.4-14.8-14.8c-3-5.2-4.5-11.2-4.5-17.7
			c0-7.9,2-15.2,5.8-22c3.9-6.8,9.5-12.7,16.7-17.6c7.3-4.9,16.2-8.9,26.6-11.6c2.7-0.8,5.6-1.3,8.4-2L-1232.6-1083.7z
			 M-1107.4-946.7c0-0.2,0-0.6,0-0.9c0-0.3,0-0.5,0-0.7c0,0.3,0,0.6,0,1C-1107.3-947.2-1107.3-946.9-1107.4-946.7z"/>
	</g>
</g>
<rect x="-1232.6" y="-1049.1" class="st5" width="62.9" height="123.2"/>
</svg>
