<?xml version="1.0" encoding="utf-8"?>
<!-- Generator: Adobe Illustrator 18.1.1, SVG Export Plug-In . SVG Version: 6.00 Build 0)  -->
<!DOCTYPE svg PUBLIC "-//W3C//DTD SVG 1.1//EN" "http://www.w3.org/Graphics/SVG/1.1/DTD/svg11.dtd">
<svg version="1.1" id="Layer_1" xmlns="http://www.w3.org/2000/svg" xmlns:xlink="http://www.w3.org/1999/xlink" x="0px" y="0px"
	 viewBox="0 0 156.5 156.5" style="enable-background:new 0 0 156.5 156.5;" xml:space="preserve">
<style type="text/css">
	.st0{fill:#9CCFDA;}
	.st1{opacity:0.15;fill:#191C1C;}
	.st2{fill:#A5A5A5;}
	.st3{fill:#395114;}
	.st4{fill:#FFFFFB;}
	.st5{fill:#898988;}
	.st6{fill:#B5B5B4;}
	.st7{fill:#8CC541;}
</style>
<path class="st0" d="M156.5,78.2c0,43.2-35,78.2-78.2,78.2c-5.9,0-11.7-0.7-17.2-1.9c-34.9-7.8-61-39.1-61-76.3C0,35,35,0,78.2,0
	c38,0,69.6,27.1,76.8,63C156,67.9,156.5,73,156.5,78.2z"/>
<path class="st1" d="M156.5,78.2c0,43.2-35,78.2-78.2,78.2c-5.9,0-11.7-0.7-17.2-1.9l-16-16l75.8-109.8L155,63
	C156,67.9,156.5,73,156.5,78.2z"/>
<polygon class="st2" points="120.8,28.7 45,28.7 45,138.6 120.8,138.6 120.8,128 120.8,128 "/>
<polygon class="st3" points="40.4,55.1 36.2,50.9 40.4,50.9 "/>
<polygon class="st4" points="116.1,24.1 40.4,24.1 40.4,133.9 93.3,133.9 116.1,123.3 116.1,123.3 "/>
<polygon class="st5" points="109.8,116.6 93.3,133.9 116.1,123.3 "/>
<path class="st6" d="M104.6,44.8c0,1.3-1.1,2.4-2.4,2.4H77.9v-4.9h24.2C103.5,42.4,104.6,43.5,104.6,44.8z"/>
<path class="st6" d="M104.6,57c0,1.3-1.1,2.4-2.4,2.4H54.4c-1.3,0-2.4-1.1-2.4-2.4l0,0c0-1.3,1.1-2.4,2.4-2.4h47.7
	C103.5,54.6,104.6,55.7,104.6,57L104.6,57z"/>
<path class="st6" d="M104.6,69.2c0,1.3-1.1,2.4-2.4,2.4H54.4c-1.3,0-2.4-1.1-2.4-2.4l0,0c0-1.3,1.1-2.4,2.4-2.4h47.7
	C103.5,66.8,104.6,67.9,104.6,69.2L104.6,69.2z"/>
<path class="st6" d="M104.6,81.4c0,1.3-1.1,2.4-2.4,2.4H54.4c-1.3,0-2.4-1.1-2.4-2.4l0,0c0-1.3,1.1-2.4,2.4-2.4h47.7
	C103.5,79,104.6,80.1,104.6,81.4L104.6,81.4z"/>
<path class="st6" d="M104.6,93.6c0,1.3-1.1,2.4-2.4,2.4H54.4c-1.3,0-2.4-1.1-2.4-2.4l0,0c0-1.3,1.1-2.4,2.4-2.4h47.7
	C103.5,91.2,104.6,92.3,104.6,93.6L104.6,93.6z"/>
<path class="st6" d="M104.6,105.8c0,1.3-1.1,2.4-2.4,2.4H54.4c-1.3,0-2.4-1.1-2.4-2.4l0,0c0-1.3,1.1-2.4,2.4-2.4h47.7
	C103.5,103.4,104.6,104.5,104.6,105.8L104.6,105.8z"/>
<rect x="36.2" y="31.9" class="st7" width="36.2" height="19"/>
<polygon class="st4" points="54.5,34.7 58.4,34.8 56.6,40.4 59.1,40.4 52.9,49.1 54.5,42.6 51.8,42.6 "/>
</svg>
